<?xml version="1.0" encoding="UTF-8" standalone="no"?>
<svg
   xmlns:dc="http://purl.org/dc/elements/1.1/"
   xmlns:cc="http://creativecommons.org/ns#"
   xmlns:rdf="http://www.w3.org/1999/02/22-rdf-syntax-ns#"
   xmlns:svg="http://www.w3.org/2000/svg"
   xmlns="http://www.w3.org/2000/svg"
   xmlns:sodipodi="http://sodipodi.sourceforge.net/DTD/sodipodi-0.dtd"
   xmlns:inkscape="http://www.inkscape.org/namespaces/inkscape"
   inkscape:version="1.0 (4035a4fb49, 2020-05-01)"
   sodipodi:docname="application.svg"
   viewBox="0 0 475.85894 620.76475"
   height="620.76477"
   width="475.85895"
   xml:space="preserve"
   id="svg19371"
   version="1.1"><metadata
     id="metadata19377"><rdf:RDF><cc:Work
         rdf:about=""><dc:format>image/svg+xml</dc:format><dc:type
           rdf:resource="http://purl.org/dc/dcmitype/StillImage" /><dc:title></dc:title></cc:Work></rdf:RDF></metadata><defs
     id="defs19375" /><sodipodi:namedview
     inkscape:current-layer="g19379"
     inkscape:window-maximized="1"
     inkscape:window-y="-9"
     inkscape:window-x="-9"
     inkscape:cy="273.31254"
     inkscape:cx="272.55064"
     inkscape:zoom="0.82891243"
     showgrid="false"
     id="namedview19373"
     inkscape:window-height="1001"
     inkscape:window-width="1920"
     inkscape:pageshadow="2"
     inkscape:pageopacity="0"
     guidetolerance="10"
     gridtolerance="10"
     objecttolerance="10"
     borderopacity="1"
     bordercolor="#666666"
     pagecolor="#ffffff" /><g
     transform="matrix(1.3333333,0,0,-1.3333333,-692.91598,657.28198)"
     inkscape:label="ink_ext_XXXXXX"
     inkscape:groupmode="layer"
     id="g19379"><path
       d="m 771.881,400.784 h -4.846 V 378.89 h 4.846 c 0.717,0 1.298,0.582 1.298,1.298 v 19.298 c 0,0.717 -0.581,1.298 -1.298,1.298"
       style="fill:#59494d;fill-opacity:1;fill-rule:nonzero;stroke:none;stroke-width:0.1"
       id="path20217" /><path
       d="m 768.87,298.28 c 0,-18.886 14.603,-18.886 14.603,0 0,31.492 -6.788,87.696 -6.788,87.696 h -1.027 c 0,0 -6.788,-56.053 -6.788,-87.696"
       style="fill:#eddcc0;fill-opacity:1;fill-rule:nonzero;stroke:none;stroke-width:0.1"
       id="path20219" /><path
       d="m 778.9,359.187 c 0.227,0 0.452,-0.023 0.676,-0.047 -1.513,15.416 -2.891,26.837 -2.891,26.837 h -1.027 c 0,0 -1.588,-13.125 -3.227,-30.246 1.995,2.222 4.178,3.456 6.469,3.456"
       style="fill:#e0caaa;fill-opacity:1;fill-rule:nonzero;stroke:none;stroke-width:0.1"
       id="path20221" /><path
       d="m 768.943,304.321 h 14.456 c -0.218,9.572 -0.903,20.688 -1.756,31.581 h -10.949 c -0.851,-10.881 -1.534,-21.991 -1.751,-31.581"
       style="fill:#e83a57;fill-opacity:1;fill-rule:nonzero;stroke:none;stroke-width:0.1"
       id="path20223" /><path
       d="m 751.721,391.425 h -8.15 L 711.65,27.3879 h 40.071 V 391.425"
       style="fill:#eddcc0;fill-opacity:1;fill-rule:nonzero;stroke:none;stroke-width:0.1"
       id="path20225" /><path
       d="M 754.608,41.141 H 708.084 L 703.05,27.3879 h 56.592 l -5.034,13.7531"
       style="fill:#d3bea1;fill-opacity:1;fill-rule:nonzero;stroke:none;stroke-width:0.1"
       id="path20227" /><path
       d="m 751.721,304.83 h -15.743 l -2.68,-30.563 h 18.423 v 30.563"
       style="fill:#e83a57;fill-opacity:1;fill-rule:nonzero;stroke:none;stroke-width:0.1"
       id="path20229" /><path
       d="m 751.721,263.57 h -19.362 l -1.25,-14.263 h 20.612 v 14.263"
       style="fill:#e83a57;fill-opacity:1;fill-rule:nonzero;stroke:none;stroke-width:0.1"
       id="path20231" /><path
       d="m 751.721,318.816 v 72.609 h -8.15 l -5.022,-57.274 c 1.849,0.754 10.765,-4.656 13.172,-15.335"
       style="fill:#d3bea1;fill-opacity:1;fill-rule:nonzero;stroke:none;stroke-width:0.1"
       id="path20233" /><path
       d="m 783.473,478.797 c 0,18.886 -14.603,18.886 -14.603,0 0,-31.492 6.788,-87.697 6.788,-87.697 h 1.027 c 0,0 6.788,56.054 6.788,87.697"
       style="fill:#eddcc0;fill-opacity:1;fill-rule:nonzero;stroke:none;stroke-width:0.1"
       id="path20235" /><path
       d="m 777.487,417.099 c -1.631,0 -3.218,0.38 -4.745,1.079 1.524,-15.538 2.916,-27.078 2.916,-27.078 h 1.027 c 0,0 1.342,11.099 2.834,26.197 -0.669,-0.127 -1.346,-0.198 -2.032,-0.198"
       style="fill:#e0caaa;fill-opacity:1;fill-rule:nonzero;stroke:none;stroke-width:0.1"
       id="path20237" /><path
       d="m 777.807,392.613 h -11.314 v -7.979 h 11.314 c 0.879,0 1.591,0.712 1.591,1.59 v 4.799 c 0,0.878 -0.712,1.59 -1.591,1.59"
       style="fill:#59494d;fill-opacity:1;fill-rule:nonzero;stroke:none;stroke-width:0.1"
       id="path20239" /><path
       d="m 771.587,401.358 c 0,3.235 -2.623,5.858 -5.858,5.858 h -55.777 c -20.63,0 -39.392,-11.036 -39.392,-11.036 0,0 17.234,-24.621 39.392,-24.621 h 55.777 c 3.235,0 5.858,2.623 5.858,5.858 v 23.941"
       style="fill:#eddcc0;fill-opacity:1;fill-rule:nonzero;stroke:none;stroke-width:0.1"
       id="path20241" /><path
       d="m 710.443,405.351 c -8.672,0 -16.979,-2.124 -23.445,-4.426 7.941,-1.576 20.146,-2.584 33.842,-2.585 22.977,0 41.766,2.839 43.231,6.425 -0.724,0.363 -1.53,0.586 -2.394,0.586 h -51.234"
       style="fill:#f7ead7;fill-opacity:1;fill-rule:nonzero;stroke:none;stroke-width:0.1"
       id="path20243" /><path
       d="m 749.803,385.6 c -29.858,0 -66.6,-2.191 -78.907,10.118 2.462,-3.331 18.669,-24.159 39.056,-24.159 h 55.777 c 3.235,0 5.858,2.623 5.858,5.858 v 14.01 c -2.082,-2.082 -14.352,-5.827 -21.784,-5.827"
       style="fill:#e0caaa;fill-opacity:1;fill-rule:nonzero;stroke:none;stroke-width:0.1"
       id="path20245" /><path
       d="m 770.687,441.345 h 10.974 c 0.851,10.891 1.53,22.001 1.741,31.581 h -14.461 c 0.212,-9.561 0.893,-20.677 1.746,-31.581"
       style="fill:#e83a57;fill-opacity:1;fill-rule:nonzero;stroke:none;stroke-width:0.1"
       id="path20247" /><path
       d="m 694.096,375.588 c 0.546,-0.273 1.099,-0.532 1.659,-0.783 v 6.593 h 31.96 v -9.839 h 1.659 v 11.498 h -35.278 v -7.469"
       style="fill:#59494d;fill-opacity:1;fill-rule:nonzero;stroke:none;stroke-width:0.1"
       id="path20249" /><path
       d="m 771.869,390.138 h -44.334 v 17.069 h 1.659 v -15.409 h 42.675 v -1.66"
       style="fill:#59494d;fill-opacity:1;fill-rule:nonzero;stroke:none;stroke-width:0.1"
       id="path20251" /><path
       d="m 573.246,214.069 c 12.272,-10.461 23.537,-43.251 24.744,-47.073 1.207,-3.821 -3.218,-17.099 -6.839,-16.495 -3.622,0.603 -17.905,63.568 -17.905,63.568"
       style="fill:#f4d592;fill-opacity:1;fill-rule:nonzero;stroke:none;stroke-width:0.1"
       id="path20253" /><path
       d="m 610.663,174.993 -18.305,-1.157 -1.207,-23.335 c 6.839,-1.207 20.317,13.68 20.317,13.68 l -0.805,10.812"
       style="fill:#f4d592;fill-opacity:1;fill-rule:nonzero;stroke:none;stroke-width:0.1"
       id="path20255" /><path
       d="M 588.736,92.766 H 563.792 V 58.7691 h 24.944 V 92.766"
       style="fill:#f4d592;fill-opacity:1;fill-rule:nonzero;stroke:none;stroke-width:0.1"
       id="path20257" /><path
       d="M 584.512,158.95 537.44,153.356 C 549.911,110.607 551.596,28.3063 551.596,28.3063 h 0.528 l 20.519,78.7057 h 2.011 c 0,0 25.951,-56.7331 30.376,-78.7057 h 0.805 c 0,0 -9.052,100.8787 -21.323,130.6437"
       style="fill:#59494d;fill-opacity:1;fill-rule:nonzero;stroke:none;stroke-width:0.1"
       id="path20259" /><path
       d="m 573.559,88.5582 8.541,-34.048 c 12.561,1.5687 21.723,4.2589 21.723,4.2589 0,0 -13.69,132.7149 -28.766,153.5899 -2.615,3.621 -19.111,14.785 -23.335,14.182 -4.225,-0.604 -17.218,-9.927 -21.323,-19.312 -3.791,-8.663 7.041,-102.594 8.449,-149.8681 11.302,-3.989 24.349,-4.4379 35.778,-3.5957 l -1.067,34.793"
       style="fill:#ffe8a9;fill-opacity:1;fill-rule:nonzero;stroke:none;stroke-width:0.1"
       id="path20261" /><path
       d="m 574.074,53.7621 c -0.311,43.8508 -7.595,141.5549 -12.096,151.1219 l 0.998,0.469 c 4.543,-9.655 11.889,-107.6491 12.202,-151.5831 l -1.104,-0.0078"
       style="fill:#f4d592;fill-opacity:1;fill-rule:nonzero;stroke:none;stroke-width:0.1"
       id="path20263" /><path
       d="m 546.596,68.2469 c -3.076,37.3531 7.754,79.8931 24.638,81.8521 9.084,1.053 18.709,-8.249 25.069,-30.703 -3.697,26.008 -5.116,47.176 -10.383,66.309 -2.981,-10.638 -11.722,-10.338 -19.081,-12.155 -12.209,-3.016 -26.557,9.791 -37.006,30.878 -1.835,-18.069 7.699,-102.913 9.015,-147.0671 3.048,-1.0757 6.225,-1.8867 9.462,-2.4918 -0.755,4.3008 -1.335,8.7731 -1.714,13.3778"
       style="fill:#f4d592;fill-opacity:1;fill-rule:nonzero;stroke:none;stroke-width:0.1"
       id="path20265" /><path
       d="m 611.434,164.402 c -1.093,-0.183 -8.712,3.54 -5.377,9.064 3.017,4.996 7.189,8.528 8.125,6.433 1.761,-3.944 2.113,-9.298 -2.748,-15.497"
       style="fill:#ff9d66;fill-opacity:1;fill-rule:nonzero;stroke:none;stroke-width:0.1"
       id="path20267" /><path
       d="m 571.152,177.37 c -1.222,-0.411 -5.729,-1.424 -7.568,-5.201 l -4.63,1.109 c 2.184,3.029 6.692,6.621 10.848,7.114 2.878,0.342 2.599,-2.602 1.35,-3.022"
       style="fill:#ffbb83;fill-opacity:1;fill-rule:nonzero;stroke:none;stroke-width:0.1"
       id="path20269" /><path
       d="m 612.347,183.294 -35.568,5.245 c -0.91,0.134 -1.817,-0.258 -2.343,-1.012 L 560.12,167.01 c -1.031,-1.479 -0.147,-3.526 1.636,-3.788 l 35.568,-5.246 c 0.91,-0.133 1.818,0.258 2.343,1.012 l 14.316,20.518 c 1.031,1.478 0.147,3.525 -1.636,3.788"
       style="fill:#59494d;fill-opacity:1;fill-rule:nonzero;stroke:none;stroke-width:0.1"
       id="path20271" /><path
       d="m 612.347,183.294 -35.568,5.245 c -0.91,0.134 -1.817,-0.258 -2.343,-1.012 l -0.864,-1.237 c 7.371,-0.113 14.876,-2.096 20.713,-5.924 6.974,-4.575 9.955,-10.721 8.844,-16.416 l 10.854,15.556 c 1.031,1.478 0.147,3.525 -1.636,3.788"
       style="fill:#6b595e;fill-opacity:1;fill-rule:nonzero;stroke:none;stroke-width:0.1"
       id="path20273" /><path
       d="m 519.687,162.471 c 0,17.668 4.224,38.019 12.824,48.279 8.599,10.26 11.466,-60.199 6.789,-62.009 -4.677,-1.81 -19.613,2.866 -19.613,13.73"
       style="fill:#ffe8a9;fill-opacity:1;fill-rule:nonzero;stroke:none;stroke-width:0.1"
       id="path20275" /><path
       d="m 562.836,160.81 -4.073,12.674 c 0,0 -34.104,-0.798 -37.266,-5.583 -5.885,-8.901 4.526,-20.669 14.635,-20.518 8.31,0.124 26.704,13.427 26.704,13.427"
       style="fill:#ffe8a9;fill-opacity:1;fill-rule:nonzero;stroke:none;stroke-width:0.1"
       id="path20277" /><path
       d="m 551.722,226.541 c -2.426,-0.346 -7.741,-3.575 -12.607,-8.033 12.824,-17.091 25.683,-23.902 25.683,-23.902 0,0 3.917,11.32 4.225,22.997 -5.992,4.381 -14.447,9.346 -17.301,8.938"
       style="fill:#906f93;fill-opacity:1;fill-rule:nonzero;stroke:none;stroke-width:0.1"
       id="path20279" /><path
       d="m 565.606,219.982 c -5.43,3.61 -11.541,6.894 -13.884,6.559 -2.426,-0.346 -7.74,-3.575 -12.607,-8.033 l 0.182,-0.239 c 2.609,-2.068 9.782,-4.322 13.411,-4.322 6.54,0 10.989,3.1 12.898,6.035"
       style="fill:#725177;fill-opacity:1;fill-rule:nonzero;stroke:none;stroke-width:0.1"
       id="path20281" /><path
       d="m 562.609,236.021 -13.201,1.786 -2.414,-13.58 c 4.894,-4.104 10.126,-2.134 15.442,-0.507 l 0.173,12.301"
       style="fill:#ed7656;fill-opacity:1;fill-rule:nonzero;stroke:none;stroke-width:0.1"
       id="path20283" /><path
       d="m 546.392,224.044 c -0.435,1.007 0.399,5.236 1.596,5.636 0.681,-1.762 3.405,-3.241 8.618,-3.006 3.712,0.167 3.005,-4.931 -0.329,-5.964 -3.334,-1.033 -8.922,1.103 -9.885,3.334"
       style="fill:#725177;fill-opacity:1;fill-rule:nonzero;stroke:none;stroke-width:0.1"
       id="path20285" /><path
       d="m 548.951,234.493 c 0.103,9.509 0.869,19.765 11.924,18.803 9.253,-0.805 7.406,-12.629 6.814,-20 -0.33,-4.112 -3.55,-12.331 -9.183,-12.13 -5.633,0.201 -9.645,5.025 -9.555,13.327"
       style="fill:#ffbb83;fill-opacity:1;fill-rule:nonzero;stroke:none;stroke-width:0.1"
       id="path20287" /><path
       d="m 551.029,233.894 c 0.634,8.7 0.462,16.523 11.505,15.53 3.719,-0.334 4.507,-2.314 5.624,-5.374 2.583,4.602 -2.081,9.883 -7.232,10.332 -4.366,0.38 -8.48,-0.867 -10.237,-3.147 -2.693,-3.492 -1.852,-9.44 -1.914,-15.192 -0.022,-2.01 2.218,-2.647 2.254,-2.149"
       style="fill:#99334e;fill-opacity:1;fill-rule:nonzero;stroke:none;stroke-width:0.1"
       id="path20289" /><path
       d="m 567.741,248.308 c 0.101,1.149 -2.565,2.32 -5.955,2.617 -3.389,0.296 -6.218,-0.395 -6.319,-1.543 -0.101,-1.148 2.566,-2.32 5.955,-2.616 3.39,-0.296 6.219,0.394 6.319,1.542"
       style="fill:#99334e;fill-opacity:1;fill-rule:nonzero;stroke:none;stroke-width:0.1"
       id="path20291" /><path
       d="m 609.814,27.3879 h -4.784 c 0,0 0.114,3.2601 0.311,2.8551 1.162,-2.395 4.473,-2.8551 4.473,-2.8551"
       style="fill:#ffe8a9;fill-opacity:1;fill-rule:nonzero;stroke:none;stroke-width:0.1"
       id="path20293" /><path
       d="m 547.705,27.3879 h 4.783 c 0,0 0.277,3.2601 0.032,2.8551 -1.45,-2.395 -4.815,-2.8551 -4.815,-2.8551"
       style="fill:#ffe8a9;fill-opacity:1;fill-rule:nonzero;stroke:none;stroke-width:0.1"
       id="path20295" /><path
       d="m 610.8,168.723 c -0.188,2.583 -2.817,5.87 -3.944,6.809 -1.127,0.94 0.187,3.428 1.267,3.147 1.08,-0.283 3.429,-2.349 3.899,-3.523 0.468,-1.174 -1.222,-6.433 -1.222,-6.433"
       style="fill:#ff9d66;fill-opacity:1;fill-rule:nonzero;stroke:none;stroke-width:0.1"
       id="path20297" /><path
       d="m 613.195,173.09 c -0.188,2.583 -2.818,5.87 -3.945,6.809 -1.127,0.94 0.189,3.429 1.269,3.147 1.08,-0.281 3.427,-2.348 3.897,-3.523 0.47,-1.174 -1.221,-6.433 -1.221,-6.433"
       style="fill:#ff9d66;fill-opacity:1;fill-rule:nonzero;stroke:none;stroke-width:0.1"
       id="path20299" /><path
       d="m 562.836,160.81 -4.073,12.674 c 0,0 3.079,3.528 8.715,4.161 0,0 3.592,-2.043 6.973,-2.536 3.382,-0.493 1.214,-13.945 -11.615,-14.299"
       style="fill:#ffbb83;fill-opacity:1;fill-rule:nonzero;stroke:none;stroke-width:0.1"
       id="path20301" /><path
       d="m 580.386,177.706 c -0.983,-0.525 -4.368,-2.829 -8.869,-1.885 l 1.152,-3.537 c 1.779,-0.56 5.705,0.583 7.748,1.695 2.043,1.112 0.951,4.251 -0.031,3.727"
       style="fill:#ffbb83;fill-opacity:1;fill-rule:nonzero;stroke:none;stroke-width:0.1"
       id="path20303" /><path
       d="m 578.257,172.224 c -0.993,-0.503 -4.43,-2.733 -8.909,-1.692 l 1.075,-3.559 c 1.767,-0.598 5.142,0.544 7.209,1.612 2.066,1.066 1.619,4.142 0.625,3.639"
       style="fill:#ffbb83;fill-opacity:1;fill-rule:nonzero;stroke:none;stroke-width:0.1"
       id="path20305" /><path
       d="m 576.031,167.077 c -1.153,-0.54 -5.167,-2.889 -10.183,-2.078 l 1.022,-3.442 c 1.968,-0.503 5.854,0.777 8.253,1.921 2.4,1.144 2.062,4.14 0.908,3.599"
       style="fill:#ffbb83;fill-opacity:1;fill-rule:nonzero;stroke:none;stroke-width:0.1"
       id="path20307" /><path
       d="m 550.066,236.501 c -0.121,1.732 -0.796,3.138 -1.509,3.138 -0.713,0 -1.194,-1.406 -1.073,-3.138 0.121,-1.734 0.796,-3.138 1.509,-3.138 0.713,0 1.194,1.404 1.073,3.138"
       style="fill:#ffbb83;fill-opacity:1;fill-rule:nonzero;stroke:none;stroke-width:0.1"
       id="path20309" /><path
       d="m 549.458,236.454 c -0.077,1.105 -0.509,2.002 -0.964,2.002 -0.455,0 -0.76,-0.897 -0.683,-2.002 0.076,-1.106 0.507,-2.003 0.963,-2.003 0.455,0 0.761,0.897 0.684,2.003"
       style="fill:#ff9d66;fill-opacity:1;fill-rule:nonzero;stroke:none;stroke-width:0.1"
       id="path20311" /><path
       d="m 549.63,235.561 c -0.056,0.802 -0.368,1.452 -0.698,1.452 -0.329,0 -0.551,-0.65 -0.495,-1.452 0.055,-0.801 0.368,-1.451 0.698,-1.451 0.329,0 0.551,0.65 0.495,1.451"
       style="fill:#ffbb83;fill-opacity:1;fill-rule:nonzero;stroke:none;stroke-width:0.1"
       id="path20313" /><path
       d="m 629.785,63.3973 c -4.799,0 -8.349,1.3488 -10.853,4.1218 -6.154,6.8141 -4.589,21.3782 -2.935,36.7969 2.489,23.188 5.311,49.47 -16.332,57.55 l 0.386,1.034 c 22.446,-8.381 19.576,-35.114 17.044,-58.701 -1.628,-15.167 -3.166,-29.4939 2.656,-35.94 2.281,-2.5277 5.567,-3.7578 10.036,-3.7578 h 0.123 l 0.007,-1.1039 h -0.132"
       style="fill:#59494d;fill-opacity:1;fill-rule:nonzero;stroke:none;stroke-width:0.1"
       id="path20315" /><path
       d="m 558.346,235.623 c 0.149,0.68 -0.066,1.298 -0.48,1.381 -0.414,0.083 -0.871,-0.402 -1.02,-1.08 -0.15,-0.68 0.065,-1.298 0.479,-1.381 0.415,-0.083 0.871,0.4 1.021,1.08"
       style="fill:#604748;fill-opacity:1;fill-rule:nonzero;stroke:none;stroke-width:0.1"
       id="path20317" /><path
       d="m 558.703,239.255 -2.776,0.183 c -0.234,0.016 -0.436,-0.153 -0.452,-0.378 l -0.063,-0.843 c -0.016,-0.224 0.159,-0.418 0.393,-0.434 l 2.776,-0.183 c 0.234,-0.015 0.436,0.154 0.452,0.377 l 0.063,0.844 c 0.016,0.225 -0.159,0.418 -0.393,0.434"
       style="fill:#99334e;fill-opacity:1;fill-rule:nonzero;stroke:none;stroke-width:0.1"
       id="path20319" /><path
       d="m 564.891,234.942 c 0.149,0.68 -0.066,1.298 -0.48,1.381 -0.415,0.083 -0.871,-0.4 -1.02,-1.08 -0.15,-0.68 0.065,-1.298 0.479,-1.381 0.414,-0.083 0.871,0.401 1.021,1.08"
       style="fill:#604748;fill-opacity:1;fill-rule:nonzero;stroke:none;stroke-width:0.1"
       id="path20321" /><path
       d="m 566.653,238.14 -2.696,0.579 c -0.226,0.048 -0.452,-0.09 -0.505,-0.309 l -0.195,-0.827 c -0.052,-0.22 0.09,-0.437 0.316,-0.485 l 2.697,-0.581 c 0.227,-0.048 0.453,0.09 0.505,0.31 l 0.196,0.827 c 0.052,0.219 -0.091,0.437 -0.318,0.486"
       style="fill:#99334e;fill-opacity:1;fill-rule:nonzero;stroke:none;stroke-width:0.1"
       id="path20323" /><path
       d="m 561.091,235.647 c 0.417,-2.408 0.462,-3.921 -0.254,-4.403 -0.446,-0.302 -1.016,-0.145 -1.455,0.066 l -0.017,-0.045 c 0,0 1.306,-1.016 2.075,-0.579 0.76,0.433 0.448,2.158 -0.349,4.961"
       style="fill:#ff9d66;fill-opacity:1;fill-rule:nonzero;stroke:none;stroke-width:0.1"
       id="path20325" /><path
       d="m 562.337,227.347 0.054,0.388 -5.77,0.802 -0.056,-0.407 5.772,-0.783"
       style="fill:#ed7656;fill-opacity:1;fill-rule:nonzero;stroke:none;stroke-width:0.1"
       id="path20327" /><path
       d="m 560.879,226.609 c 0.026,0.202 -0.561,0.207 -1.361,0.312 -0.801,0.103 -1.512,0.266 -1.538,0.064 -0.027,-0.202 0.491,-0.595 1.291,-0.699 0.8,-0.104 1.582,0.12 1.608,0.323"
       style="fill:#ed7656;fill-opacity:1;fill-rule:nonzero;stroke:none;stroke-width:0.1"
       id="path20329" /><path
       d="m 724.214,115.374 h -54.241 v -9.158 h 54.241 v 9.158"
       style="fill:#3d2f33;fill-opacity:1;fill-rule:nonzero;stroke:none;stroke-width:0.1"
       id="path20331" /><path
       d="M 763.527,112.078 H 722.49 V 30.807 h 41.037 v 81.271"
       style="fill:#59494d;fill-opacity:1;fill-rule:nonzero;stroke:none;stroke-width:0.1"
       id="path20333" /><path
       d="M 745.487,112.078 H 719.095 V 30.807 h 26.392 v 81.271"
       style="fill:#3d2f33;fill-opacity:1;fill-rule:nonzero;stroke:none;stroke-width:0.1"
       id="path20335" /><path
       d="m 720.175,149.233 h -39.448 v -2.16 h 39.448 v 2.16"
       style="fill:#59494d;fill-opacity:1;fill-rule:nonzero;stroke:none;stroke-width:0.1"
       id="path20337" /><path
       d="m 737.175,81.9602 h -68.396 v 11.0359 h 68.396 c 4.978,0 4.978,-11.0359 0,-11.0359"
       style="fill:#ff4a4a;fill-opacity:1;fill-rule:nonzero;stroke:none;stroke-width:0.1"
       id="path20339" /><path
       d="m 740.829,88.652 c -0.304,2.3171 -1.52,4.3441 -3.654,4.3441 H 668.779 V 88.652 h 72.05"
       style="fill:#d12a2a;fill-opacity:1;fill-rule:nonzero;stroke:none;stroke-width:0.1"
       id="path20341" /><path
       d="m 737.175,70.466 h -68.396 v 7.725 h 68.396 c 3.006,0 3.006,-7.725 0,-7.725"
       style="fill:#ff4a4a;fill-opacity:1;fill-rule:nonzero;stroke:none;stroke-width:0.1"
       id="path20343" /><path
       d="m 739.429,74.3219 c 0.002,1.934 -0.749,3.8691 -2.254,3.8691 h -68.396 v -3.8691 h 70.65"
       style="fill:#d12a2a;fill-opacity:1;fill-rule:nonzero;stroke:none;stroke-width:0.1"
       id="path20345" /><path
       d="m 688.584,38.509 h -23.023 v 5.518 h 23.023 c 2.422,0 4.393,1.971 4.393,4.3929 v 6.216 c 0,5.4641 4.445,9.9102 9.91,9.9102 h 29.863 c 2.988,0 2.988,-5.518 0,-5.518 h -29.863 c -2.422,0 -4.393,-1.9711 -4.393,-4.3922 v -6.216 c 0,-5.4648 -4.445,-9.9109 -9.91,-9.9109"
       style="fill:#ffc043;fill-opacity:1;fill-rule:nonzero;stroke:none;stroke-width:0.1"
       id="path20347" /><path
       d="m 690.181,40.575 h -23.024 v 3.452 h -1.596 v -5.518 h 23.023 c 3.648,0 6.833,1.9871 8.554,4.9289 -1.791,-1.768 -4.248,-2.8629 -6.957,-2.8629"
       style="fill:#ffa039;fill-opacity:1;fill-rule:nonzero;stroke:none;stroke-width:0.1"
       id="path20349" /><path
       d="m 694.573,50.4859 v 6.2161 c 0,1.816 0.499,3.516 1.357,4.9812 -1.821,-1.798 -2.953,-4.293 -2.953,-7.0473 v -6.216 c 0,-0.5418 -0.113,-1.0551 -0.292,-1.5328 1.138,0.7942 1.888,2.109 1.888,3.5988"
       style="fill:#ffa039;fill-opacity:1;fill-rule:nonzero;stroke:none;stroke-width:0.1"
       id="path20351" /><path
       d="m 734.347,61.0941 h -29.863 c -1.881,0 -3.476,-1.1941 -4.101,-2.8589 0.711,0.4961 1.572,0.7929 2.504,0.7929 h 29.863 c 1.274,0 1.999,1.0028 2.188,2.1539 -0.184,-0.0531 -0.377,-0.0879 -0.591,-0.0879"
       style="fill:#ffa039;fill-opacity:1;fill-rule:nonzero;stroke:none;stroke-width:0.1"
       id="path20353" /><path
       d="M 771.373,32.216 H 627.339 v -4.8281 h 144.034 v 4.8281"
       style="fill:#59494d;fill-opacity:1;fill-rule:nonzero;stroke:none;stroke-width:0.1"
       id="path20355" /><path
       d="M 675.015,112.078 H 633.978 V 30.807 h 41.037 v 81.271"
       style="fill:#59494d;fill-opacity:1;fill-rule:nonzero;stroke:none;stroke-width:0.1"
       id="path20357" /><path
       d="M 675.015,113.119 H 633.978 V 98.0449 h 41.037 v 15.0741"
       style="fill:#3d2f33;fill-opacity:1;fill-rule:nonzero;stroke:none;stroke-width:0.1"
       id="path20359" /><path
       d="M 763.527,113.119 H 722.49 V 98.0449 h 41.037 v 15.0741"
       style="fill:#3d2f33;fill-opacity:1;fill-rule:nonzero;stroke:none;stroke-width:0.1"
       id="path20361" /><path
       d="M 658.561,112.078 H 629.328 V 30.807 h 29.233 v 81.271"
       style="fill:#3d2f33;fill-opacity:1;fill-rule:nonzero;stroke:none;stroke-width:0.1"
       id="path20363" /><path
       d="m 671.939,91.234 h -9.434 V 68.2281 h 9.434 V 91.234"
       style="fill:#3d2f33;fill-opacity:1;fill-rule:nonzero;stroke:none;stroke-width:0.1"
       id="path20365" /><path
       d="m 735.852,134.319 h -32.335 l -1.484,-13.694 h 35.301 l -1.482,13.694"
       style="fill:#d3bea1;fill-opacity:1;fill-rule:nonzero;stroke:none;stroke-width:0.1"
       id="path20367" /><path
       d="m 708.728,134.319 c 0,-6.219 5.042,-11.26 11.26,-11.26 6.219,0 11.26,5.041 11.26,11.26 0,6.219 -5.041,11.261 -11.26,11.261 -6.218,0 -11.26,-5.042 -11.26,-11.261"
       style="fill:#d3bea1;fill-opacity:1;fill-rule:nonzero;stroke:none;stroke-width:0.1"
       id="path20369" /><path
       d="m 737.956,134.319 h -9.589 l 2.259,-13.694 h 10.469 l -3.139,13.694"
       style="fill:#eddcc0;fill-opacity:1;fill-rule:nonzero;stroke:none;stroke-width:0.1"
       id="path20371" /><path
       d="m 734.459,189.125 h -7.543 l -11.869,-51.7 h 7.544 l 11.868,51.7"
       style="fill:#d3bea1;fill-opacity:1;fill-rule:nonzero;stroke:none;stroke-width:0.1"
       id="path20373" /><path
       d="m 693.607,134.319 h -32.335 l -1.484,-13.694 h 35.302 l -1.483,13.694"
       style="fill:#d3bea1;fill-opacity:1;fill-rule:nonzero;stroke:none;stroke-width:0.1"
       id="path20375" /><path
       d="m 666.484,134.319 c 0,-6.219 5.041,-11.26 11.259,-11.26 6.219,0 11.26,5.041 11.26,11.26 0,6.219 -5.041,11.261 -11.26,11.261 -6.218,0 -11.259,-5.042 -11.259,-11.261"
       style="fill:#d3bea1;fill-opacity:1;fill-rule:nonzero;stroke:none;stroke-width:0.1"
       id="path20377" /><path
       d="m 692.215,189.125 h -7.544 l -11.868,-51.7 h 7.543 l 11.869,51.7"
       style="fill:#d3bea1;fill-opacity:1;fill-rule:nonzero;stroke:none;stroke-width:0.1"
       id="path20379" /><path
       d="m 668.278,134.319 c 0,-3.463 2.283,-6.271 5.097,-6.271 2.816,0 5.098,2.808 5.098,6.271 0,3.464 -2.282,6.273 -5.098,6.273 -2.814,0 -5.097,-2.809 -5.097,-6.273"
       style="fill:#59494d;fill-opacity:1;fill-rule:nonzero;stroke:none;stroke-width:0.1"
       id="path20381" /><path
       d="m 672.128,134.319 c 0,-1.868 1.231,-3.383 2.75,-3.383 1.519,0 2.75,1.515 2.75,3.383 0,1.869 -1.231,3.384 -2.75,3.384 -1.519,0 -2.75,-1.515 -2.75,-3.384"
       style="fill:#d3bea1;fill-opacity:1;fill-rule:nonzero;stroke:none;stroke-width:0.1"
       id="path20383" /><path
       d="m 693.906,134.319 h -9.589 l 2.258,-13.694 h 10.469 l -3.138,13.694"
       style="fill:#eddcc0;fill-opacity:1;fill-rule:nonzero;stroke:none;stroke-width:0.1"
       id="path20385" /><path
       d="M 753.561,126.102 H 638.743 l -5.266,-13.694 h 125.351 l -5.267,13.694"
       style="fill:#eddcc0;fill-opacity:1;fill-rule:nonzero;stroke:none;stroke-width:0.1"
       id="path20387" /><path
       d="m 667.652,126.102 h -32.138 l -1.474,-13.694 h 35.087 l -1.475,13.694"
       style="fill:#d3bea1;fill-opacity:1;fill-rule:nonzero;stroke:none;stroke-width:0.1"
       id="path20389" /><path
       d="M 754.291,124.037 H 648.295 l -4.862,-10.871 h 115.72 l -4.862,10.871"
       style="fill:#d3bea1;fill-opacity:1;fill-rule:nonzero;stroke:none;stroke-width:0.1"
       id="path20391" /><path
       d="M 769.361,122.856 H 631.98 V 109.06 h 137.381 v 13.796"
       style="fill:#eddcc0;fill-opacity:1;fill-rule:nonzero;stroke:none;stroke-width:0.1"
       id="path20393" /><path
       d="m 663.351,122.856 h -39.14 V 109.06 h 39.14 v 13.796"
       style="fill:#d3bea1;fill-opacity:1;fill-rule:nonzero;stroke:none;stroke-width:0.1"
       id="path20395" /><path
       d="M 721.433,223.724 H 608.277 l 54.617,-65.377 h 113.155 l -54.616,65.377"
       style="fill:#59494d;fill-opacity:1;fill-rule:nonzero;stroke:none;stroke-width:0.1"
       id="path20397" /><path
       d="m 719.043,221.165 h -100.81 l 48.658,-58.247 100.81,0.001 -48.658,58.246"
       style="fill:#95cbdb;fill-opacity:1;fill-rule:nonzero;stroke:none;stroke-width:0.1"
       id="path20399" /><path
       d="m 711.813,134.319 c 0,-3.463 2.281,-6.271 5.096,-6.271 2.816,0 5.098,2.808 5.098,6.271 0,3.464 -2.282,6.273 -5.098,6.273 -2.815,0 -5.096,-2.809 -5.096,-6.273"
       style="fill:#59494d;fill-opacity:1;fill-rule:nonzero;stroke:none;stroke-width:0.1"
       id="path20401" /><path
       d="m 715.662,134.319 c 0,-1.868 1.232,-3.383 2.75,-3.383 1.519,0 2.75,1.515 2.75,3.383 0,1.869 -1.231,3.384 -2.75,3.384 -1.518,0 -2.75,-1.515 -2.75,-3.384"
       style="fill:#d3bea1;fill-opacity:1;fill-rule:nonzero;stroke:none;stroke-width:0.1"
       id="path20403" /><path
       d="m 675.276,172.307 h -14.787 l 7.005,-8.544 h 14.787 l -7.005,8.544"
       style="fill:#b0f0ff;fill-opacity:1;fill-rule:nonzero;stroke:none;stroke-width:0.1"
       id="path20405" /><path
       d="m 691.951,172.307 h -14.786 l 7.005,-8.544 h 14.786 l -7.005,8.544"
       style="fill:#b0f0ff;fill-opacity:1;fill-rule:nonzero;stroke:none;stroke-width:0.1"
       id="path20407" /><path
       d="M 708.627,172.307 H 693.84 l 7.006,-8.544 h 14.786 l -7.005,8.544"
       style="fill:#b0f0ff;fill-opacity:1;fill-rule:nonzero;stroke:none;stroke-width:0.1"
       id="path20409" /><path
       d="m 725.303,172.307 h -14.787 l 7.005,-8.544 h 14.787 l -7.005,8.544"
       style="fill:#b0f0ff;fill-opacity:1;fill-rule:nonzero;stroke:none;stroke-width:0.1"
       id="path20411" /><path
       d="m 741.978,172.307 h -14.786 l 7.004,-8.544 h 14.787 l -7.005,8.544"
       style="fill:#b0f0ff;fill-opacity:1;fill-rule:nonzero;stroke:none;stroke-width:0.1"
       id="path20413" /><path
       d="m 758.653,172.307 h -14.787 l 7.006,-8.544 h 14.786 l -7.005,8.544"
       style="fill:#b0f0ff;fill-opacity:1;fill-rule:nonzero;stroke:none;stroke-width:0.1"
       id="path20415" /><path
       d="M 667.536,182.027 H 652.75 l 7.005,-8.543 h 14.787 l -7.006,8.543"
       style="fill:#b0f0ff;fill-opacity:1;fill-rule:nonzero;stroke:none;stroke-width:0.1"
       id="path20417" /><path
       d="m 684.212,182.027 h -14.786 l 7.005,-8.543 h 14.786 l -7.005,8.543"
       style="fill:#b0f0ff;fill-opacity:1;fill-rule:nonzero;stroke:none;stroke-width:0.1"
       id="path20419" /><path
       d="m 700.888,182.027 h -14.787 l 7.005,-8.543 h 14.787 l -7.005,8.543"
       style="fill:#b0f0ff;fill-opacity:1;fill-rule:nonzero;stroke:none;stroke-width:0.1"
       id="path20421" /><path
       d="m 717.563,182.027 h -14.787 l 7.005,-8.543 h 14.787 l -7.005,8.543"
       style="fill:#b0f0ff;fill-opacity:1;fill-rule:nonzero;stroke:none;stroke-width:0.1"
       id="path20423" /><path
       d="m 734.238,182.027 h -14.786 l 7.005,-8.543 h 14.786 l -7.005,8.543"
       style="fill:#b0f0ff;fill-opacity:1;fill-rule:nonzero;stroke:none;stroke-width:0.1"
       id="path20425" /><path
       d="m 750.914,182.027 h -14.787 l 7.005,-8.543 h 14.787 l -7.005,8.543"
       style="fill:#b0f0ff;fill-opacity:1;fill-rule:nonzero;stroke:none;stroke-width:0.1"
       id="path20427" /><path
       d="m 659.372,191.607 h -14.786 l 7.005,-8.543 h 14.786 l -7.005,8.543"
       style="fill:#b0f0ff;fill-opacity:1;fill-rule:nonzero;stroke:none;stroke-width:0.1"
       id="path20429" /><path
       d="m 676.048,191.607 h -14.787 l 7.005,-8.543 h 14.787 l -7.005,8.543"
       style="fill:#b0f0ff;fill-opacity:1;fill-rule:nonzero;stroke:none;stroke-width:0.1"
       id="path20431" /><path
       d="m 692.723,191.607 h -14.786 l 7.005,-8.543 h 14.787 l -7.006,8.543"
       style="fill:#b0f0ff;fill-opacity:1;fill-rule:nonzero;stroke:none;stroke-width:0.1"
       id="path20433" /><path
       d="m 709.399,191.607 h -14.787 l 7.005,-8.543 h 14.786 l -7.004,8.543"
       style="fill:#b0f0ff;fill-opacity:1;fill-rule:nonzero;stroke:none;stroke-width:0.1"
       id="path20435" /><path
       d="m 726.074,191.607 h -14.787 l 7.005,-8.543 h 14.787 l -7.005,8.543"
       style="fill:#b0f0ff;fill-opacity:1;fill-rule:nonzero;stroke:none;stroke-width:0.1"
       id="path20437" /><path
       d="m 742.749,191.607 h -14.786 l 7.005,-8.543 h 14.787 l -7.006,8.543"
       style="fill:#b0f0ff;fill-opacity:1;fill-rule:nonzero;stroke:none;stroke-width:0.1"
       id="path20439" /><path
       d="m 651.208,201.188 h -14.787 l 7.006,-8.544 h 14.786 l -7.005,8.544"
       style="fill:#b0f0ff;fill-opacity:1;fill-rule:nonzero;stroke:none;stroke-width:0.1"
       id="path20441" /><path
       d="m 667.884,201.188 h -14.787 l 7.005,-8.544 h 14.787 l -7.005,8.544"
       style="fill:#b0f0ff;fill-opacity:1;fill-rule:nonzero;stroke:none;stroke-width:0.1"
       id="path20443" /><path
       d="m 684.559,201.188 h -14.786 l 7.004,-8.544 h 14.787 l -7.005,8.544"
       style="fill:#b0f0ff;fill-opacity:1;fill-rule:nonzero;stroke:none;stroke-width:0.1"
       id="path20445" /><path
       d="m 701.234,201.188 h -14.787 l 7.005,-8.544 h 14.787 l -7.005,8.544"
       style="fill:#b0f0ff;fill-opacity:1;fill-rule:nonzero;stroke:none;stroke-width:0.1"
       id="path20447" /><path
       d="m 717.91,201.188 h -14.787 l 7.005,-8.544 h 14.787 l -7.005,8.544"
       style="fill:#b0f0ff;fill-opacity:1;fill-rule:nonzero;stroke:none;stroke-width:0.1"
       id="path20449" /><path
       d="m 734.585,201.188 h -14.786 l 7.005,-8.544 h 14.786 l -7.005,8.544"
       style="fill:#b0f0ff;fill-opacity:1;fill-rule:nonzero;stroke:none;stroke-width:0.1"
       id="path20451" /><path
       d="m 643.044,210.768 h -14.787 l 7.005,-8.544 h 14.787 l -7.005,8.544"
       style="fill:#b0f0ff;fill-opacity:1;fill-rule:nonzero;stroke:none;stroke-width:0.1"
       id="path20453" /><path
       d="m 659.719,210.768 h -14.786 l 7.005,-8.544 h 14.786 l -7.005,8.544"
       style="fill:#b0f0ff;fill-opacity:1;fill-rule:nonzero;stroke:none;stroke-width:0.1"
       id="path20455" /><path
       d="m 676.395,210.768 h -14.787 l 7.005,-8.544 H 683.4 l -7.005,8.544"
       style="fill:#b0f0ff;fill-opacity:1;fill-rule:nonzero;stroke:none;stroke-width:0.1"
       id="path20457" /><path
       d="m 693.07,210.768 h -14.787 l 7.005,-8.544 h 14.787 l -7.005,8.544"
       style="fill:#b0f0ff;fill-opacity:1;fill-rule:nonzero;stroke:none;stroke-width:0.1"
       id="path20459" /><path
       d="m 709.745,210.768 h -14.786 l 7.005,-8.544 h 14.786 l -7.005,8.544"
       style="fill:#b0f0ff;fill-opacity:1;fill-rule:nonzero;stroke:none;stroke-width:0.1"
       id="path20461" /><path
       d="m 726.421,210.768 h -14.787 l 7.006,-8.544 h 14.786 l -7.005,8.544"
       style="fill:#b0f0ff;fill-opacity:1;fill-rule:nonzero;stroke:none;stroke-width:0.1"
       id="path20463" /><path
       d="m 634.879,220.349 h -14.786 l 7.005,-8.543 h 14.787 l -7.006,8.543"
       style="fill:#b0f0ff;fill-opacity:1;fill-rule:nonzero;stroke:none;stroke-width:0.1"
       id="path20465" /><path
       d="m 651.555,220.349 h -14.786 l 7.005,-8.543 h 14.786 l -7.005,8.543"
       style="fill:#b0f0ff;fill-opacity:1;fill-rule:nonzero;stroke:none;stroke-width:0.1"
       id="path20467" /><path
       d="m 668.231,220.349 h -14.788 l 7.005,-8.543 h 14.787 l -7.004,8.543"
       style="fill:#b0f0ff;fill-opacity:1;fill-rule:nonzero;stroke:none;stroke-width:0.1"
       id="path20469" /><path
       d="m 684.905,220.349 h -14.786 l 7.005,-8.543 h 14.786 l -7.005,8.543"
       style="fill:#b0f0ff;fill-opacity:1;fill-rule:nonzero;stroke:none;stroke-width:0.1"
       id="path20471" /><path
       d="m 701.581,220.349 h -14.787 l 7.006,-8.543 h 14.786 l -7.005,8.543"
       style="fill:#b0f0ff;fill-opacity:1;fill-rule:nonzero;stroke:none;stroke-width:0.1"
       id="path20473" /><path
       d="M 718.257,220.349 H 703.47 l 7.005,-8.543 h 14.787 l -7.005,8.543"
       style="fill:#b0f0ff;fill-opacity:1;fill-rule:nonzero;stroke:none;stroke-width:0.1"
       id="path20475" /><path
       d="m 661.848,32.216 h -35.316 v -4.8281 h 35.316 v 4.8281"
       style="fill:#3d2f33;fill-opacity:1;fill-rule:nonzero;stroke:none;stroke-width:0.1"
       id="path20477" /><path
       d="m 686.926,44.6012 c 0,-3.8903 3.153,-7.0442 7.044,-7.0442 3.89,0 7.045,3.1539 7.045,7.0442 0,3.891 -3.155,7.0437 -7.045,7.0437 -3.891,0 -7.044,-3.1527 -7.044,-7.0437"
       style="fill:#d12a2a;fill-opacity:1;fill-rule:nonzero;stroke:none;stroke-width:0.1"
       id="path20479" /><path
       d="m 686.926,44.6012 c 0,-3.8903 3.153,-7.0442 7.044,-7.0442 3.89,0 7.045,3.1539 7.045,7.0442 0,3.891 -3.155,7.0437 -7.045,7.0437 -3.891,0 -7.044,-3.1527 -7.044,-7.0437"
       style="fill:#d12a2a;fill-opacity:1;fill-rule:nonzero;stroke:none;stroke-width:0.1"
       id="path20481" /><path
       d="m 690.354,45.7281 c 0,-2.8269 2.292,-5.1191 5.119,-5.1191 2.827,0 5.119,2.2922 5.119,5.1191 0,2.8282 -2.292,5.1199 -5.119,5.1199 -2.827,0 -5.119,-2.2917 -5.119,-5.1199"
       style="fill:#ff4a4a;fill-opacity:1;fill-rule:nonzero;stroke:none;stroke-width:0.1"
       id="path20483" /><path
       d="m 693.324,46.2219 c 0,-1.4719 1.194,-2.6649 2.665,-2.6649 1.472,0 2.665,1.193 2.665,2.6649 0,1.4711 -1.193,2.6652 -2.665,2.6652 -1.471,0 -2.665,-1.1941 -2.665,-2.6652"
       style="fill:#d12a2a;fill-opacity:1;fill-rule:nonzero;stroke:none;stroke-width:0.1"
       id="path20485" /><path
       d="m 693.677,45.6582 c 0,-0.9402 0.762,-1.7023 1.702,-1.7023 0.94,0 1.702,0.7621 1.702,1.7023 0,0.941 -0.762,1.702 -1.702,1.702 -0.94,0 -1.702,-0.761 -1.702,-1.702"
       style="fill:#ffc043;fill-opacity:1;fill-rule:nonzero;stroke:none;stroke-width:0.1"
       id="path20487" /><path
       d="m 685.656,41.293 c 0.614,-1.5188 2.255,-2.7489 3.667,-2.7489 1.412,0 2.06,1.2301 1.448,2.7489 -0.614,1.5191 -2.255,2.75 -3.667,2.75 -1.412,0 -2.06,-1.2309 -1.448,-2.75"
       style="fill:#ffa039;fill-opacity:1;fill-rule:nonzero;stroke:none;stroke-width:0.1"
       id="path20489" /><path
       d="m 660.489,172.307 7.005,-8.544 h 14.787 l -7.005,8.544 h -14.787"
       style="fill:#ccf8ff;fill-opacity:1;fill-rule:nonzero;stroke:none;stroke-width:0.1"
       id="path20491" /><path
       d="m 677.165,172.307 7.005,-8.544 h 14.786 l -7.005,8.544 h -14.786"
       style="fill:#ccf8ff;fill-opacity:1;fill-rule:nonzero;stroke:none;stroke-width:0.1"
       id="path20493" /><path
       d="m 700.846,163.763 h 0.04 l 3.516,8.544 H 693.84 l 7.006,-8.544"
       style="fill:#ccf8ff;fill-opacity:1;fill-rule:nonzero;stroke:none;stroke-width:0.1"
       id="path20495" /><path
       d="m 674.542,173.484 -7.006,8.543 h -14.642 l -0.048,-0.116 6.909,-8.427 h 14.787"
       style="fill:#ccf8ff;fill-opacity:1;fill-rule:nonzero;stroke:none;stroke-width:0.1"
       id="path20497" /><path
       d="m 691.217,173.484 -7.005,8.543 h -14.786 l 7.005,-8.543 h 14.786"
       style="fill:#ccf8ff;fill-opacity:1;fill-rule:nonzero;stroke:none;stroke-width:0.1"
       id="path20499" /><path
       d="m 686.101,182.027 7.005,-8.543 h 11.781 l 1.005,2.441 -5.004,6.102 h -14.787"
       style="fill:#ccf8ff;fill-opacity:1;fill-rule:nonzero;stroke:none;stroke-width:0.1"
       id="path20501" /><path
       d="m 706.523,177.459 1.879,4.568 h -5.626 z"
       style="fill:#ccf8ff;fill-opacity:1;fill-rule:nonzero;stroke:none;stroke-width:0.1"
       id="path20503" /><path
       d="m 659.372,191.607 h -2.536 l -3.516,-8.543 h 13.057 l -7.005,8.543"
       style="fill:#ccf8ff;fill-opacity:1;fill-rule:nonzero;stroke:none;stroke-width:0.1"
       id="path20505" /><path
       d="m 676.048,191.607 h -14.787 l 7.005,-8.543 h 14.787 l -7.005,8.543"
       style="fill:#ccf8ff;fill-opacity:1;fill-rule:nonzero;stroke:none;stroke-width:0.1"
       id="path20507" /><path
       d="m 677.937,191.607 7.005,-8.543 h 14.787 l -7.006,8.543 h -14.786"
       style="fill:#ccf8ff;fill-opacity:1;fill-rule:nonzero;stroke:none;stroke-width:0.1"
       id="path20509" /><path
       d="m 694.612,191.607 7.005,-8.543 h 7.212 l 2.531,6.151 -1.961,2.392 h -14.787"
       style="fill:#ccf8ff;fill-opacity:1;fill-rule:nonzero;stroke:none;stroke-width:0.1"
       id="path20511" /><path
       d="m 711.992,190.749 0.354,0.858 h -1.059 z"
       style="fill:#ccf8ff;fill-opacity:1;fill-rule:nonzero;stroke:none;stroke-width:0.1"
       id="path20513" /><path
       d="m 657.58,193.416 -0.317,-0.772 h 0.95 z"
       style="fill:#ccf8ff;fill-opacity:1;fill-rule:nonzero;stroke:none;stroke-width:0.1"
       id="path20515" /><path
       d="m 674.889,192.644 -7.005,8.544 h -7.105 l -2.567,-6.238 1.89,-2.306 h 14.787"
       style="fill:#ccf8ff;fill-opacity:1;fill-rule:nonzero;stroke:none;stroke-width:0.1"
       id="path20517" /><path
       d="m 691.564,192.644 -7.005,8.544 h -14.786 l 7.004,-8.544 h 14.787"
       style="fill:#ccf8ff;fill-opacity:1;fill-rule:nonzero;stroke:none;stroke-width:0.1"
       id="path20519" /><path
       d="m 693.452,192.644 h 14.787 l -7.005,8.544 h -14.787 l 7.005,-8.544"
       style="fill:#ccf8ff;fill-opacity:1;fill-rule:nonzero;stroke:none;stroke-width:0.1"
       id="path20521" /><path
       d="m 710.128,192.644 h 2.645 l 3.515,8.544 h -13.165 l 7.005,-8.544"
       style="fill:#ccf8ff;fill-opacity:1;fill-rule:nonzero;stroke:none;stroke-width:0.1"
       id="path20523" /><path
       d="m 663.05,206.706 -1.844,-4.482 h 5.518 z"
       style="fill:#ccf8ff;fill-opacity:1;fill-rule:nonzero;stroke:none;stroke-width:0.1"
       id="path20525" /><path
       d="m 683.4,202.224 -7.005,8.544 h -11.673 l -1.04,-2.528 4.931,-6.016 H 683.4"
       style="fill:#ccf8ff;fill-opacity:1;fill-rule:nonzero;stroke:none;stroke-width:0.1"
       id="path20527" /><path
       d="m 700.075,202.224 -7.005,8.544 h -14.787 l 7.005,-8.544 h 14.787"
       style="fill:#ccf8ff;fill-opacity:1;fill-rule:nonzero;stroke:none;stroke-width:0.1"
       id="path20529" /><path
       d="m 694.959,210.768 7.005,-8.544 h 14.751 l 0.012,0.03 -6.982,8.514 h -14.786"
       style="fill:#ccf8ff;fill-opacity:1;fill-rule:nonzero;stroke:none;stroke-width:0.1"
       id="path20531" /><path
       d="m 717.359,203.787 2.873,6.981 h -8.598 z"
       style="fill:#ccf8ff;fill-opacity:1;fill-rule:nonzero;stroke:none;stroke-width:0.1"
       id="path20533" /><path
       d="m 668.52,219.996 -3.371,-8.19 h 10.086 z"
       style="fill:#ccf8ff;fill-opacity:1;fill-rule:nonzero;stroke:none;stroke-width:0.1"
       id="path20535" /><path
       d="m 684.905,220.349 h -14.786 l 7.005,-8.543 h 14.786 l -7.005,8.543"
       style="fill:#ccf8ff;fill-opacity:1;fill-rule:nonzero;stroke:none;stroke-width:0.1"
       id="path20537" /><path
       d="m 708.586,211.806 -7.005,8.543 h -14.787 l 7.006,-8.543 h 14.786"
       style="fill:#ccf8ff;fill-opacity:1;fill-rule:nonzero;stroke:none;stroke-width:0.1"
       id="path20539" /><path
       d="m 703.47,220.349 7.005,-8.543 h 10.183 l 1.538,3.738 -3.939,4.805 H 703.47"
       style="fill:#ccf8ff;fill-opacity:1;fill-rule:nonzero;stroke:none;stroke-width:0.1"
       id="path20541" /><path
       d="m 669.644,89.309 h -6.299 V 70.1539 h 6.299 V 89.309"
       style="fill:#95cbdb;fill-opacity:1;fill-rule:nonzero;stroke:none;stroke-width:0.1"
       id="path20543" /><path
       d="m 690.771,41.293 c -0.614,1.5191 -2.255,2.75 -3.666,2.75 -1.412,0 -2.061,-1.2309 -1.449,-2.75 0.098,-0.241 0.23,-0.4719 0.374,-0.695 h 4.928 c -0.035,0.2231 -0.09,0.454 -0.187,0.695"
       style="fill:#ffc043;fill-opacity:1;fill-rule:nonzero;stroke:none;stroke-width:0.1"
       id="path20545" /><path
       d="m 784.002,178.889 3.156,11.623 23.609,-4.109 5.764,-25.632 c 0,0 -22.131,9.161 -32.529,18.118"
       style="fill:#f4d790;fill-opacity:1;fill-rule:nonzero;stroke:none;stroke-width:0.1"
       id="path20547" /><path
       d="m 807.987,185.682 6.331,-26.094 c 0,0 33.753,63.547 26.713,62.226 -14.823,-2.779 -33.044,-36.132 -33.044,-36.132"
       style="fill:#f4d790;fill-opacity:1;fill-rule:nonzero;stroke:none;stroke-width:0.1"
       id="path20549" /><path
       d="M 864.913,132.565 852.561,27.8762 h -0.85 l -13.047,86.4698 -2.471,0.308 -33.429,-86.7778 h -0.85 l 13.279,121.3658 49.72,-16.677"
       style="fill:#ff4a4a;fill-opacity:1;fill-rule:nonzero;stroke:none;stroke-width:0.1"
       id="path20551" /><path
       d="m 849.947,39.5652 -11.283,74.7808 -2.471,0.308 -26.893,-69.8091 -5.452,0.7082 11.345,103.6889 49.72,-16.677 -11.033,-93.5099 -3.933,0.5101"
       style="fill:#c62828;fill-opacity:1;fill-rule:nonzero;stroke:none;stroke-width:0.1"
       id="path20553" /><path
       d="m 851.441,27.3879 h 6.338 c 0,0 -4.437,2.0434 -5.775,3.4512 -1.339,1.4089 -0.563,-3.4512 -0.563,-3.4512"
       style="fill:#f4d790;fill-opacity:1;fill-rule:nonzero;stroke:none;stroke-width:0.1"
       id="path20555" /><path
       d="m 802.97,27.3879 h -6.339 c 0,0 4.437,2.0434 5.775,3.4512 1.339,1.4089 0.564,-3.4512 0.564,-3.4512"
       style="fill:#f4d790;fill-opacity:1;fill-rule:nonzero;stroke:none;stroke-width:0.1"
       id="path20557" /><path
       d="m 860.178,47.6402 c -23.779,-1.2351 -57.749,7.4118 -57.749,7.4118 0,0 4.458,150.241 34.588,165.527 14,7.103 31.586,-2.139 36.029,-18.838 5.971,-22.44 -12.868,-154.1008 -12.868,-154.1008"
       style="fill:#ffe8a9;fill-opacity:1;fill-rule:nonzero;stroke:none;stroke-width:0.1"
       id="path20559" /><path
       d="m 817.775,51.7102 1.172,-0.234 c 0,0 0.534,122.1968 21.885,158.1998 l -0.949,0.554 C 818.378,173.97 817.775,51.7102 817.775,51.7102"
       style="fill:#f4d790;fill-opacity:1;fill-rule:nonzero;stroke:none;stroke-width:0.1"
       id="path20561" /><path
       d="m 864.822,215.587 c -13.223,-8.943 -25.641,-9.39 -26.879,-9.213 -0.959,0.137 -0.093,8.76 0.835,14.995 7.932,3.203 20.786,0.368 26.044,-5.782"
       style="fill:#59494d;fill-opacity:1;fill-rule:nonzero;stroke:none;stroke-width:0.1"
       id="path20563" /><path
       d="m 862.393,217.769 c -2.818,-1.866 -8.891,-4.26 -13.383,-4.26 -5.913,0 -9.613,4.155 -8.966,8.32 7.129,2.388 15.869,1.083 22.349,-4.06"
       style="fill:#3f3034;fill-opacity:1;fill-rule:nonzero;stroke:none;stroke-width:0.1"
       id="path20565" /><path
       d="m 845.098,233.802 12.821,-1.956 -0.512,-11.091 c -5.74,-2.297 -10.45,-2.522 -12.822,1.956 l 0.513,11.091"
       style="fill:#ed7656;fill-opacity:1;fill-rule:nonzero;stroke:none;stroke-width:0.1"
       id="path20567" /><path
       d="m 858.39,220.188 -0.893,2.301 -10.753,-2.441 0.846,-4.414 10.8,4.554"
       style="fill:#f4d790;fill-opacity:1;fill-rule:nonzero;stroke:none;stroke-width:0.1"
       id="path20569" /><path
       d="m 843.176,217.841 3.897,2.207 -2.394,3.849 -1.409,-1.173 -0.094,-4.883"
       style="fill:#f4d790;fill-opacity:1;fill-rule:nonzero;stroke:none;stroke-width:0.1"
       id="path20571" /><path
       d="m 843.888,248.076 c -3.293,-5.87 -2.12,-20.094 -0.489,-23.547 0.935,-1.979 10.541,-2.52 12.831,0.542 2.879,3.85 4.899,13.246 4.718,19.111 -0.308,10.038 -11.733,13.391 -17.06,3.894"
       style="fill:#ffbb83;fill-opacity:1;fill-rule:nonzero;stroke:none;stroke-width:0.1"
       id="path20573" /><path
       d="m 856.136,240.379 c 1.719,7.95 -6.36,11.942 -12.049,8.026 -0.864,4.887 3.597,6.484 8.856,6.484 5.919,0 9.357,-5.02 9.532,-10.707 0.149,-4.843 -2.731,-12.085 -4.827,-16.633 -1.512,3.063 -2.639,7.618 -1.512,12.83"
       style="fill:#bc4428;fill-opacity:1;fill-rule:nonzero;stroke:none;stroke-width:0.1"
       id="path20575" /><path
       d="m 856.064,233.499 c 0.46,1.955 1.611,3.414 2.571,3.26 0.96,-0.156 1.366,-1.867 0.906,-3.822 -0.46,-1.955 -1.611,-3.415 -2.571,-3.259 -0.96,0.155 -1.366,1.866 -0.906,3.821"
       style="fill:#ffbb83;fill-opacity:1;fill-rule:nonzero;stroke:none;stroke-width:0.1"
       id="path20577" /><path
       d="m 856.635,232.954 c 0.26,1.103 0.908,1.925 1.449,1.837 0.541,-0.088 0.77,-1.052 0.511,-2.153 -0.26,-1.103 -0.908,-1.925 -1.449,-1.837 -0.541,0.088 -0.77,1.051 -0.511,2.153"
       style="fill:#ff9d66;fill-opacity:1;fill-rule:nonzero;stroke:none;stroke-width:0.1"
       id="path20579" /><path
       d="m 856.357,232.583 c 0.19,0.807 0.665,1.41 1.061,1.347 0.397,-0.065 0.565,-0.772 0.374,-1.579 -0.189,-0.807 -0.665,-1.41 -1.061,-1.346 -0.397,0.064 -0.564,0.771 -0.374,1.578"
       style="fill:#ffbb83;fill-opacity:1;fill-rule:nonzero;stroke:none;stroke-width:0.1"
       id="path20581" /><path
       d="m 836.332,48.8 c 2.306,49.1039 3.781,118.812 12.009,130.865 6.646,9.735 12.842,17.75 17.186,17.75 0.243,0 5.416,9.428 5.657,9.407 0.755,-1.603 1.387,-3.297 1.862,-5.081 5.97,-22.44 -12.868,-154.1008 -12.868,-154.1008 -5.616,-0.291 -16.521,0.0328 -23.846,1.1598"
       style="fill:#f4d790;fill-opacity:1;fill-rule:nonzero;stroke:none;stroke-width:0.1"
       id="path20583" /><path
       d="m 847.053,175.182 c 12.045,12.199 20.691,37.213 20.691,37.213 0,0 14.526,-11.262 6.331,-40.763 -6.176,-22.236 -26.558,-24.552 -29.183,-22.699 -2.625,1.853 2.161,26.249 2.161,26.249"
       style="fill:#ffe8a9;fill-opacity:1;fill-rule:nonzero;stroke:none;stroke-width:0.1"
       id="path20585" /><path
       d="m 844.892,148.933 c -10.346,6.794 -25.632,26.868 -25.632,26.868 l 4.015,9.573 c 0,0 21.632,-8.917 26.249,-7.721 7.593,1.969 4.393,-29.637 -4.632,-28.72"
       style="fill:#ffe8a9;fill-opacity:1;fill-rule:nonzero;stroke:none;stroke-width:0.1"
       id="path20587" /><path
       d="m 843.765,152.502 c 2.625,-1.854 23.007,0.463 29.183,22.698 3.307,11.905 2.912,20.837 1.267,27.26 2.463,-6.524 3.833,-16.528 -0.14,-30.828 -6.176,-22.236 -26.558,-24.552 -29.183,-22.699 -10.346,6.794 -25.632,26.868 -25.632,26.868 0,0 16.245,-17.875 24.505,-23.299"
       style="fill:#f4d790;fill-opacity:1;fill-rule:nonzero;stroke:none;stroke-width:0.1"
       id="path20589" /><path
       d="m 842.096,177.553 c -7.282,1.468 -12.912,4.929 -17.197,7.166 5.104,-2.033 20.719,-7.789 24.569,-6.791 -0.479,-0.899 -2.019,-1.455 -7.372,-0.375"
       style="fill:#f4d790;fill-opacity:1;fill-rule:nonzero;stroke:none;stroke-width:0.1"
       id="path20591" /><path
       d="m 784.002,178.889 6.255,11.107 c 0,0 -8.875,7.56 -11.692,7.489 -2.818,-0.07 -5.142,-8.311 -3.592,-11.269 1.55,-2.958 9.029,-7.327 9.029,-7.327"
       style="fill:#ffbb83;fill-opacity:1;fill-rule:nonzero;stroke:none;stroke-width:0.1"
       id="path20593" /><path
       d="m 765.014,221.557 9.79,-0.792 c 0.722,-0.06 1.325,-0.58 1.489,-1.287 l 6.873,-29.685 c 0.255,-1.1 -0.634,-2.129 -1.759,-2.038 l -9.79,0.794 c -0.722,0.058 -1.325,0.578 -1.489,1.285 l -6.873,29.685 c -0.255,1.1 0.634,2.129 1.759,2.038"
       style="fill:#e83a57;fill-opacity:1;fill-rule:nonzero;stroke:none;stroke-width:0.1"
       id="path20595" /><path
       d="m 766.354,220.158 8.089,-0.655 c 0.597,-0.049 1.095,-0.479 1.23,-1.063 l 6.326,-27.379 c 0.211,-0.909 -0.523,-1.759 -1.453,-1.683 l -8.088,0.655 c -0.598,0.048 -1.096,0.478 -1.23,1.062 l -6.327,27.379 c -0.21,0.909 0.524,1.759 1.453,1.684"
       style="fill:#ffe8a9;fill-opacity:1;fill-rule:nonzero;stroke:none;stroke-width:0.1"
       id="path20597" /><path
       d="m 790.257,189.996 c -1.408,3.896 -3.052,9.391 -4.273,9.813 -1.221,0.423 -7.043,3.288 -7.56,3.616 -0.517,0.329 -1.127,-1.972 0,-3.334 1.127,-1.362 4.414,-3.428 4.414,-3.428 0,0 -1.346,-2.359 0.47,-5.165 1.549,-2.395 6.949,-1.502 6.949,-1.502"
       style="fill:#ffbb83;fill-opacity:1;fill-rule:nonzero;stroke:none;stroke-width:0.1"
       id="path20599" /><path
       d="m 823.783,185.863 c -1.267,3.663 -2.958,7.044 -4.367,7.114 -1.408,0.071 -6.339,-0.916 -7.395,-0.775 -1.057,0.142 0.845,-2.605 3.663,-3.028 2.817,-0.423 8.099,-3.311 8.099,-3.311"
       style="fill:#ffbb83;fill-opacity:1;fill-rule:nonzero;stroke:none;stroke-width:0.1"
       id="path20601" /><path
       d="m 819.26,175.801 6.401,8.654 c 0,0 -7.519,6.843 -10.407,7.125 -2.888,0.281 -3.205,-8.783 -2.616,-10.657 1.066,-3.392 6.622,-5.122 6.622,-5.122"
       style="fill:#ffbb83;fill-opacity:1;fill-rule:nonzero;stroke:none;stroke-width:0.1"
       id="path20603" /><path
       d="m 815.144,190.653 c -2.818,0.47 -3.804,-0.516 -3.992,-1.737 -0.188,-1.221 1.972,-2.207 2.582,-2.348 0.611,-0.141 1.41,4.085 1.41,4.085"
       style="fill:#ffbb83;fill-opacity:1;fill-rule:nonzero;stroke:none;stroke-width:0.1"
       id="path20605" /><path
       d="m 814.768,187.46 c -2.818,0.47 -3.804,-0.517 -3.992,-1.737 -0.187,-1.221 1.973,-2.208 2.583,-2.348 0.611,-0.141 1.409,4.085 1.409,4.085"
       style="fill:#ffbb83;fill-opacity:1;fill-rule:nonzero;stroke:none;stroke-width:0.1"
       id="path20607" /><path
       d="m 814.883,183.571 c -2.494,0.371 -3.19,-0.76 -3.164,-2.108 0.025,-1.348 2.034,-2.32 2.58,-2.443 0.547,-0.123 0.584,4.551 0.584,4.551"
       style="fill:#ffbb83;fill-opacity:1;fill-rule:nonzero;stroke:none;stroke-width:0.1"
       id="path20609" /><path
       d="m 832.329,130.871 2.386,-13.106 18.509,-2.282 -0.266,-1.988 -19.819,2.763 -2.595,14.795 1.785,-0.182"
       style="fill:#f4d790;fill-opacity:1;fill-rule:nonzero;stroke:none;stroke-width:0.1"
       id="path20611" /><path
       d="m 849.652,238.181 c -0.046,0.746 0.284,1.368 0.738,1.387 0.454,0.021 0.859,-0.568 0.906,-1.315 0.047,-0.747 -0.283,-1.368 -0.736,-1.389 -0.454,-0.019 -0.861,0.569 -0.908,1.317"
       style="fill:#604748;fill-opacity:1;fill-rule:nonzero;stroke:none;stroke-width:0.1"
       id="path20613" /><path
       d="m 849.871,242.099 2.981,-0.262 c 0.25,-0.022 0.437,-0.235 0.419,-0.476 l -0.074,-0.907 c -0.018,-0.24 -0.238,-0.418 -0.488,-0.396 l -2.98,0.262 c -0.251,0.023 -0.439,0.236 -0.419,0.476 l 0.072,0.907 c 0.019,0.241 0.238,0.418 0.489,0.396"
       style="fill:#bc4428;fill-opacity:1;fill-rule:nonzero;stroke:none;stroke-width:0.1"
       id="path20615" /><path
       d="m 843.759,238.111 c -0.046,0.747 0.283,1.368 0.737,1.389 0.454,0.019 0.861,-0.569 0.907,-1.317 0.047,-0.746 -0.283,-1.368 -0.737,-1.388 -0.454,-0.02 -0.86,0.569 -0.907,1.316"
       style="fill:#604748;fill-opacity:1;fill-rule:nonzero;stroke:none;stroke-width:0.1"
       id="path20617" /><path
       d="m 842.412,241.939 2.961,0.173 c 0.249,0.015 0.466,-0.17 0.486,-0.411 l 0.071,-0.911 c 0.019,-0.242 -0.167,-0.45 -0.416,-0.464 l -2.961,-0.173 c -0.249,-0.014 -0.467,0.17 -0.485,0.411 l -0.073,0.911 c -0.018,0.243 0.167,0.451 0.417,0.464"
       style="fill:#bc4428;fill-opacity:1;fill-rule:nonzero;stroke:none;stroke-width:0.1"
       id="path20619" /><path
       d="m 847.679,238.095 c -0.84,-2.491 -1.137,-4.091 -0.455,-4.722 0.425,-0.395 1.055,-0.321 1.557,-0.169 l 0.011,-0.05 c 0,0 -1.556,-0.866 -2.3,-0.274 -0.737,0.585 -0.122,2.366 1.187,5.215"
       style="fill:#ff9d66;fill-opacity:1;fill-rule:nonzero;stroke:none;stroke-width:0.1"
       id="path20621" /><path
       d="m 844.989,229.477 0.006,0.422 6.264,-0.096 -0.007,-0.442 -6.263,0.116"
       style="fill:#ed7656;fill-opacity:1;fill-rule:nonzero;stroke:none;stroke-width:0.1"
       id="path20623" /><path
       d="m 846.417,228.454 c 0.005,0.22 0.63,0.128 1.498,0.107 0.868,-0.021 1.651,0.036 1.645,-0.184 -0.005,-0.22 -0.619,-0.552 -1.488,-0.53 -0.867,0.021 -1.661,0.387 -1.655,0.607"
       style="fill:#ed7656;fill-opacity:1;fill-rule:nonzero;stroke:none;stroke-width:0.1"
       id="path20625" /></g></svg>
