<?xml version="1.0" encoding="UTF-8" standalone="no"?>
<svg
   xmlns:dc="http://purl.org/dc/elements/1.1/"
   xmlns:cc="http://creativecommons.org/ns#"
   xmlns:rdf="http://www.w3.org/1999/02/22-rdf-syntax-ns#"
   xmlns:svg="http://www.w3.org/2000/svg"
   xmlns="http://www.w3.org/2000/svg"
   xmlns:sodipodi="http://sodipodi.sourceforge.net/DTD/sodipodi-0.dtd"
   xmlns:inkscape="http://www.inkscape.org/namespaces/inkscape"
   sodipodi:docname="stability.svg"
   inkscape:version="1.0 (4035a4fb49, 2020-05-01)"
   version="1.1"
   id="svg2"
   viewBox="0 0 244.30881 225.59399"
   height="225.59399"
   width="244.30881">
  <title
     id="title4153">Isotop O-14</title>
  <defs
     id="defs4">
    <marker
       inkscape:isstock="true"
       style="overflow:visible;"
       id="Arrow2Send"
       refX="0.0"
       refY="0.0"
       orient="auto"
       inkscape:stockid="Arrow2Send">
      <path
         transform="scale(0.3) rotate(180) translate(-2.3,0)"
         d="M 8.7185878,4.0337352 L -2.2072895,0.016013256 L 8.7185884,-4.0017078 C 6.9730900,-1.6296469 6.9831476,1.6157441 8.7185878,4.0337352 z "
         style="fill-rule:evenodd;stroke-width:0.625;stroke-linejoin:round;stroke:#ff5900;stroke-opacity:1;fill:#ff5900;fill-opacity:1"
         id="path971" />
    </marker>
    <marker
       inkscape:stockid="Arrow2Send"
       orient="auto"
       refY="0"
       refX="0"
       id="Arrow2Send-8"
       style="overflow:visible"
       inkscape:isstock="true">
      <path
         id="path971-0"
         style="fill:#ff5900;fill-opacity:1;fill-rule:evenodd;stroke:#ff5900;stroke-width:0.625;stroke-linejoin:round;stroke-opacity:1"
         d="M 8.7185878,4.0337352 -2.2072895,0.01601326 8.7185884,-4.0017078 c -1.7454984,2.3720609 -1.7354408,5.6174519 -6e-7,8.035443 z"
         transform="matrix(-0.3,0,0,-0.3,0.69,0)" />
    </marker>
    <marker
       inkscape:stockid="Arrow2Send"
       orient="auto"
       refY="0"
       refX="0"
       id="Arrow2Send-6"
       style="overflow:visible"
       inkscape:isstock="true">
      <path
         id="path971-9"
         style="fill:#ff5900;fill-opacity:1;fill-rule:evenodd;stroke:#ff5900;stroke-width:0.625;stroke-linejoin:round;stroke-opacity:1"
         d="M 8.7185878,4.0337352 -2.2072895,0.01601326 8.7185884,-4.0017078 c -1.7454984,2.3720609 -1.7354408,5.6174519 -6e-7,8.035443 z"
         transform="matrix(-0.3,0,0,-0.3,0.69,0)" />
    </marker>
  </defs>
  <sodipodi:namedview
     inkscape:document-rotation="0"
     inkscape:window-maximized="1"
     inkscape:window-y="-8"
     inkscape:window-x="1912"
     inkscape:window-height="837"
     inkscape:window-width="1600"
     units="px"
     showgrid="false"
     inkscape:current-layer="layer1"
     inkscape:document-units="px"
     inkscape:cy="85.141392"
     inkscape:cx="116.54571"
     inkscape:zoom="1.8541666"
     inkscape:pageshadow="2"
     inkscape:pageopacity="0.0"
     borderopacity="1.0"
     bordercolor="#666666"
     pagecolor="#ffffff"
     id="base" />
  <metadata
     id="metadata7">
    <rdf:RDF>
      <cc:Work
         rdf:about="">
        <dc:format>image/svg+xml</dc:format>
        <dc:type
           rdf:resource="http://purl.org/dc/dcmitype/StillImage" />
        <dc:title>types of stability</dc:title>
        <cc:license
           rdf:resource="http://creativecommons.org/licenses/by-sa/4.0/" />
        <dc:date>2018-12-11</dc:date>
        <dc:creator>
          <cc:Agent>
            <dc:title>Michael A. Rundel</dc:title>
          </cc:Agent>
        </dc:creator>
        <dc:rights>
          <cc:Agent>
            <dc:title>CC BY-SA 4.0</dc:title>
          </cc:Agent>
        </dc:rights>
        <dc:subject>
          <rdf:Bag>
            <rdf:li>physics mechanics equilibrium stability</rdf:li>
          </rdf:Bag>
        </dc:subject>
        <dc:description>types of stability: (a) stable equilibrium, (b) neutral equilibrium, (c) unstable equilibrium</dc:description>
      </cc:Work>
      <cc:License
         rdf:about="http://creativecommons.org/licenses/by-sa/4.0/">
        <cc:permits
           rdf:resource="http://creativecommons.org/ns#Reproduction" />
        <cc:permits
           rdf:resource="http://creativecommons.org/ns#Distribution" />
        <cc:requires
           rdf:resource="http://creativecommons.org/ns#Notice" />
        <cc:requires
           rdf:resource="http://creativecommons.org/ns#Attribution" />
        <cc:permits
           rdf:resource="http://creativecommons.org/ns#DerivativeWorks" />
        <cc:requires
           rdf:resource="http://creativecommons.org/ns#ShareAlike" />
      </cc:License>
    </rdf:RDF>
  </metadata>
  <g
     transform="translate(-104.3151,-599.75403)"
     id="layer1"
     inkscape:groupmode="layer"
     inkscape:label="Ebene 1">
    <text
       id="text5042"
       y="825.03326"
       x="226.74873"
       style="font-style:normal;font-weight:normal;font-size:28.3566px;line-height:1.25;font-family:sans-serif;text-align:center;letter-spacing:0px;word-spacing:0px;text-anchor:middle;fill:#808080;fill-opacity:1;stroke:none;stroke-width:0.708915"
       xml:space="preserve"><tspan
         style="font-size:20.7948px;text-align:center;text-anchor:middle;fill:#808080;stroke-width:0.708915"
         y="825.03326"
         x="226.74873"
         id="tspan5040"
         sodipodi:role="line">Sistema Instável</tspan></text>
    <path
       style="fill:#5698fd;fill-opacity:1;stroke:none;stroke-width:1.57962;stroke-linecap:round;stroke-linejoin:round;stroke-miterlimit:4;stroke-dasharray:none;stroke-dashoffset:0;stroke-opacity:1"
       d="m 105.10491,795.52718 c 26.32742,-25.48606 57.64033,-47.8093 93.97864,-55.78506 29.31184,-6.67303 60.4939,-1.67371 87.28172,11.54614 22.95625,11.10191 43.25737,27.04495 61.46882,44.75478 l -0.009,8.65658 c -40.45486,-0.086 -202.19699,0.086 -242.65185,0 z"
       id="path4992"
       inkscape:connector-curvature="0"
       sodipodi:nodetypes="ccccccc" />
    <circle
       style="fill:#ffffff;fill-opacity:1;fill-rule:evenodd;stroke:#808080;stroke-width:1.57963;stroke-linecap:butt;stroke-linejoin:miter;stroke-miterlimit:4;stroke-dasharray:none;stroke-opacity:1"
       id="circle4971"
       cx="226.4695"
       cy="717.63416"
       r="18.634628" />
    <path
       inkscape:connector-curvature="0"
       style="fill:#808080;fill-opacity:0.129412;fill-rule:evenodd;stroke:none;stroke-width:1.57963;stroke-linecap:butt;stroke-linejoin:miter;stroke-miterlimit:4;stroke-dasharray:none;stroke-opacity:1"
       d="m 226.46955,701.74057 a 15.89362,15.89362 0 0 0 -15.89373,15.89359 15.89362,15.89362 0 0 0 0.20947,2.52125 21.375638,21.375638 0 0 1 18.98516,-18.06139 15.89362,15.89362 0 0 0 -3.3009,-0.35345 z"
       id="path4973" />
    <path
       id="path4977"
       d="m 105.10491,795.52718 1.57617,-1.51937 1.57617,-1.49814 1.5763,-1.48066 1.57605,-1.4582 1.57604,-1.43822 1.5763,-1.42074 1.57629,-1.39826 1.57605,-1.38079 1.57605,-1.36081 1.5763,-1.33835 1.57629,-1.32086 1.57605,-1.29839 1.57604,-1.28091 1.57631,-1.26094 1.57629,-1.24096 1.57605,-1.21849 1.57555,-1.20101 1.57554,-1.18104 1.57804,-1.16106 1.57555,-1.14109 1.57555,-1.1211 1.57804,-1.10114 1.57555,-1.08116 1.57555,-1.06118 1.57555,-1.04122 1.57555,-1.02123 1.57803,-1.00126 1.57555,-0.98129 1.57555,-0.9613 1.57805,-0.94384 1.57554,-0.92135 1.57555,-0.90139 1.57555,-0.8814 1.57555,-0.86393 1.57804,-0.84146 1.57555,-0.82148 1.57554,-0.804 1.57805,-0.78153 1.57555,-0.76406 1.57554,-0.74158 1.57555,-0.7241 1.57555,-0.70163 1.57804,-0.68416 1.57555,-0.66417 1.57555,-0.64171 1.57804,-0.62422 1.57555,-0.60425 1.57555,-0.58428 1.57554,-0.56181 1.57555,-0.54432 1.57805,-0.52434 1.57554,-0.50438 1.57555,-0.48441 1.57805,-0.46442 1.57555,-0.44445 1.57554,-0.42447 1.57555,-0.4045 1.57554,-0.38452 1.57805,-0.36455 1.57555,-0.34457 1.57554,-0.3246 1.57805,-0.30463 1.57555,-0.28714 1.57555,-0.26467 1.57554,-0.2447 1.57555,-0.22472 1.57804,-0.20724 1.57555,-0.18477 1.57555,-0.1673 1.57804,-0.14482 1.57555,-0.12484 1.57555,-0.10737 1.57555,-0.0849 1.57554,-0.0674 1.57804,-0.0474 1.57555,-0.025 1.57555,-0.008 1.57804,0.0125 1.57555,0.0349 1.57555,0.0525 1.57555,0.0724 1.57555,0.0924 1.57804,0.11486 1.57554,0.13233 1.57555,0.15231 1.57805,0.17229 1.57554,0.19226 1.57555,0.21224 1.57555,0.23221 1.57555,0.25219 1.57804,0.27216 1.57555,0.29214 1.57554,0.31211 1.57805,0.33209 1.57555,0.34957 1.57554,0.37204 1.57555,0.392 1.57555,0.412 1.57804,0.42947 1.57555,0.45194 1.57555,0.47191 1.57805,0.48939 1.57554,0.51187 1.57555,0.52934 1.57554,0.55182 1.57555,0.5693 1.57805,0.59176 1.57555,0.60925 1.57554,0.62921 1.57805,0.6517 1.57555,0.66917 1.57554,0.68914 1.57555,0.71162 1.57555,0.7291 1.57804,0.74907 1.57555,0.76905 1.57555,0.78902 1.57804,0.8115 1.57555,0.82897 1.57555,0.84894 1.57554,0.86893 1.57555,0.88889 1.57804,0.90888 1.57555,0.92885 1.57555,0.94632 1.57804,0.9688 1.57555,0.98878 1.57555,1.00875 1.57555,1.02872 1.57554,1.04621 1.57804,1.06867 1.57555,1.08866 1.57555,1.10612 1.57804,1.1286 1.57555,1.14858 1.57555,1.16605 1.57555,1.18854 1.57555,1.206 1.57804,1.22847 1.57554,1.24597 1.57555,1.26842 1.57805,1.2859 1.57554,1.30589 1.57555,1.32835 1.57555,1.34583 1.57555,1.36581 1.57804,1.38578 1.57555,1.40826 1.57554,1.42573 1.57805,1.44571 1.57555,1.46568 1.57554,1.48566 1.57555,1.50588 1.57555,1.52562"
       inkscape:connector-curvature="0"
       style="fill:none;stroke:#808080;stroke-width:1.57962;stroke-linecap:round;stroke-linejoin:round;stroke-miterlimit:4;stroke-dasharray:none;stroke-dashoffset:0;stroke-opacity:1"
       sodipodi:nodetypes="ccccccccccccccccccccccccccccccccccccccccccccccccccccccccccccccccccccccccccccccccccccccccccccccccccccccccccccccccccccccccccccccccccccccccccccccccccccccccccc" />
    <circle
       style="fill:#ffffff;fill-opacity:1;fill-rule:evenodd;stroke:#808080;stroke-width:1.58;stroke-linecap:butt;stroke-linejoin:miter;stroke-miterlimit:4;stroke-dasharray:none;stroke-opacity:1"
       id="circle4162"
       cx="226.4695"
       cy="639.82251"
       r="18.634628" />
    <path
       inkscape:connector-curvature="0"
       style="fill:#808080;fill-opacity:0.129412;fill-rule:evenodd;stroke:none;stroke-width:1.57963;stroke-linecap:butt;stroke-linejoin:miter;stroke-miterlimit:4;stroke-dasharray:none;stroke-opacity:1"
       d="m 226.46955,623.9289 a 15.89362,15.89362 0 0 0 -15.89373,15.89358 15.89362,15.89362 0 0 0 0.20947,2.52126 21.375638,21.375638 0 0 1 18.98516,-18.0614 15.89362,15.89362 0 0 0 -3.3009,-0.35344 z"
       id="path4164" />
    <path
       style="fill:#5698fd;fill-opacity:1;stroke:none;stroke-width:1.57962;stroke-linecap:round;stroke-linejoin:round;stroke-miterlimit:4;stroke-dasharray:none;stroke-dashoffset:0;stroke-opacity:1"
       d="m 105.10491,601.0597 c 26.46563,25.62355 57.9924,48.05553 94.5703,55.91446 29.48143,6.56488 60.77786,1.32195 87.6031,-12.1212 22.58922,-11.08614 42.58082,-26.82872 60.55578,-44.30912 -0.003,22.63269 -0.006,45.26537 -0.009,67.89805 -80.88392,0.0832 -161.76792,-0.0832 -242.65185,0 -0.0228,-22.46072 -0.0457,-44.92145 -0.0685,-67.38219 z"
       id="path4937"
       inkscape:connector-curvature="0" />
    <path
       inkscape:connector-curvature="0"
       id="path96"
       d="m 105.10491,601.0597 c 26.32742,25.48606 57.64033,47.80931 93.97864,55.78506 29.31184,6.67303 60.4939,1.67372 87.28172,-11.54613 22.95625,-11.10192 43.25737,-27.04495 61.46882,-44.75479"
       style="fill:none;stroke:#808080;stroke-width:1.57962;stroke-linecap:round;stroke-linejoin:round;stroke-miterlimit:4;stroke-dasharray:none;stroke-dashoffset:0;stroke-opacity:1" />
    <text
       id="text5034"
       y="689.28821"
       x="226.74873"
       style="font-style:normal;font-weight:normal;font-size:28.3566px;line-height:1.25;font-family:sans-serif;text-align:center;letter-spacing:0px;word-spacing:0px;text-anchor:middle;fill:#808080;fill-opacity:1;stroke:none;stroke-width:0.708915"
       xml:space="preserve"><tspan
         style="font-size:20.7948px;text-align:center;text-anchor:middle;fill:#808080;stroke-width:0.708915"
         y="689.28821"
         x="226.74873"
         id="tspan5032"
         sodipodi:role="line">Sistema Estável</tspan></text>
    <path
       sodipodi:nodetypes="cc"
       id="path936"
       d="m 252.47384,643.22918 c 14.02315,-1.30585 32.65786,-9.81878 42.52174,-18.68668"
       style="fill:none;stroke:#ff5900;stroke-width:1.5;stroke-linecap:butt;stroke-linejoin:miter;stroke-miterlimit:4;stroke-dasharray:3, 3;stroke-dashoffset:0;stroke-opacity:1;marker-end:url(#Arrow2Send)" />
    <path
       style="fill:none;stroke:#ff5900;stroke-width:1.5;stroke-linecap:butt;stroke-linejoin:miter;stroke-miterlimit:4;stroke-dasharray:3, 3;stroke-dashoffset:0;stroke-opacity:1;marker-end:url(#Arrow2Send-8)"
       d="m 293.73192,608.14027 c -14.02315,1.30585 -32.65786,9.81878 -42.52174,18.68668"
       id="path936-3"
       sodipodi:nodetypes="cc" />
    <path
       style="fill:none;stroke:#ff5900;stroke-width:1.5;stroke-linecap:butt;stroke-linejoin:miter;stroke-miterlimit:4;stroke-dasharray:3, 3;stroke-dashoffset:0;stroke-opacity:1;marker-end:url(#Arrow2Send-6)"
       d="m 251.41368,718.21994 c 47.23099,-0.4896 74.71367,26.97462 92.82868,48.04753"
       id="path936-1"
       sodipodi:nodetypes="cc" />
  </g>
</svg>
